HIERARCHY
ROOT Hips
{
  OFFSET 40.9192 92.6879 18.85
  CHANNELS 6 Xposition Yposition Zposition Zrotation Xrotation Yrotation
  JOINT LeftUpLeg
  {
    OFFSET 8.64259 1.95398 -2.38835
    CHANNELS 3 Zrotation Xrotation Yrotation
    JOINT LeftLeg
    {
      OFFSET 43.7702 0 0
      CHANNELS 3 Zrotation Xrotation Yrotation
      JOINT LeftFoot
      {
        OFFSET 40.6238 0 0
        CHANNELS 3 Zrotation Xrotation Yrotation
        JOINT LeftToeBase
        {
          OFFSET 12.7242 0 0
          CHANNELS 3 Zrotation Xrotation Yrotation
          End Site
          {
            OFFSET 0 0 0
          }
        }
      }
    }
  }
  JOINT RightUpLeg
  {
    OFFSET -8.2249 1.95398 -2.59336
    CHANNELS 3 Zrotation Xrotation Yrotation
    JOINT RightLeg
    {
      OFFSET 43.5653 0 0
      CHANNELS 3 Zrotation Xrotation Yrotation
      JOINT RightFoot
      {
        OFFSET 40.6238 0 0
        CHANNELS 3 Zrotation Xrotation Yrotation
        JOINT RightToeBase
        {
          OFFSET 12.7242 0 0
          CHANNELS 3 Zrotation Xrotation Yrotation
          End Site
          {
            OFFSET 0 0 0
          }
        }
      }
    }
  }
  JOINT Spine
  {
    OFFSET 0.165834 0.87714 6.61349
    CHANNELS 3 Zrotation Xrotation Yrotation
    JOINT Spine1
    {
      OFFSET 7.38963 1.71661e-005 0
      CHANNELS 3 Zrotation Xrotation Yrotation
      JOINT Spine2
      {
        OFFSET 11.9445 1.14441e-005 0
        CHANNELS 3 Zrotation Xrotation Yrotation
        JOINT Spine3
        {
          OFFSET 14.7254 4.19617e-005 0
          CHANNELS 3 Zrotation Xrotation Yrotation
          JOINT Spine4
          {
            OFFSET 10.9679 0 0
            CHANNELS 3 Zrotation Xrotation Yrotation
            JOINT RightShoulder
            {
              OFFSET 2.46616 -1.6653 3.69651
              CHANNELS 3 Zrotation Xrotation Yrotation
              JOINT RightArm
              {
                OFFSET 13.0012 0 0
                CHANNELS 3 Zrotation Xrotation Yrotation
                JOINT RightForeArm
                {
                  OFFSET 28.7848 1.52588e-005 0
                  CHANNELS 3 Zrotation Xrotation Yrotation
                  JOINT RightHand
                  {
                    OFFSET 26.5688 1.52588e-005 0
                    CHANNELS 3 Zrotation Xrotation Yrotation
                    End Site
                    {
                      OFFSET 0 0 0
                    }
                  }
                }
              }
            }
            JOINT LeftShoulder
            {
              OFFSET 2.38034 -1.29275 -3.7523
              CHANNELS 3 Zrotation Xrotation Yrotation
              JOINT LeftArm
              {
                OFFSET 16.3182 6.10351e-005 0
                CHANNELS 3 Zrotation Xrotation Yrotation
                JOINT LeftForeArm
                {
                  OFFSET 27.0901 0 0
                  CHANNELS 3 Zrotation Xrotation Yrotation
                  JOINT LeftHand
                  {
                    OFFSET 24.5451 1.52588e-005 0
                    CHANNELS 3 Zrotation Xrotation Yrotation
                    End Site
                    {
                      OFFSET 0 0 0
                    }
                  }
                }
              }
            }
            JOINT Neck
            {
              OFFSET 5.0226 -0.0266342 0
              CHANNELS 3 Zrotation Xrotation Yrotation
              JOINT Head
              {
                OFFSET 6.69363 2.86102e-005 0
                CHANNELS 3 Zrotation Xrotation Yrotation
                End Site
                {
                  OFFSET 0 0 0
                }
              }
            }
          }
        }
      }
    }
  }
}
MOTION
Frames:	15
Frame Time:	0.0416667
45.049 94.1286 -296.528 -73.3774 -87.9771 -71.9305 -170.388 -4.34636 89.3913 -19.4182 16.4621 -3.56856 71.6103 13.8557 14.5817 38.5774 7.82236 3.43215 175.482 24.35 93.9858 -13.1523 -0.176854 1.95503 62.5836 -2.10239 -1.21749 38.1191 0.373781 -5.37758 -0.404803 7.9055 -90.0803 11.0628 -0.842993 -0.0786203 -0.607896 -0.845647 -0.0414371 -23.145 -0.780388 -0.328348 -3.13235 -0.780404 -0.32836 93.9454 -48.9969 -94.9146 31.5079 -5.21352 8.68037 -12.8469 -31.1503 -39.8742 -17.5302 0.568581 -7.92971 -96.1883 -48.4447 69.0653 -21.8735 17.1127 -3.08861 5.53181 9.90936 -42.1086 11.4158 0.772853 2.76171 5.24005 2.16991 -0.843013 6.78876 2.66724 3.90767 
44.9411 93.6546 -293.983 -63.4384 -87.7607 -62.1992 -170.525 -5.90528 89.2399 -18.8099 16.3065 -3.37317 71.433 14.0406 14.7684 39.6947 8.69718 2.50102 175.48 24.9149 93.9816 -11.3794 0.412688 2.0853 63.6996 -2.35363 -1.34685 37.9842 0.394877 -4.05218 -0.418491 7.91554 -90.0795 11.0428 -0.869835 -0.0744764 -0.627892 -0.872274 -0.0361194 -23.1651 -0.80724 -0.332466 -3.15248 -0.807245 -0.332475 93.9246 -49.2829 -94.9001 30.9917 -5.32507 8.57773 -11.0488 -29.798 -39.3126 -11.6156 -0.692128 0.378486 -96.112 -48.3291 69.1423 -21.5035 17.273 -3.60758 5.6323 10.0131 -42.2953 11.2561 0.772376 2.83733 5.5616 2.30576 -1.35495 6.8084 2.94082 4.44887 
44.8722 93.4279 -291.232 -32.7774 -87.896 -31.3242 -170.278 -5.92422 90.0115 -20.2557 17.9266 -3.18662 69.968 11.9829 13.6436 42.6055 11.1308 3.27128 175.644 24.8345 93.9376 -9.17973 0.507792 1.99496 63.6831 -2.48169 -1.42492 37.3448 0.384567 -4.1128 -0.50508 7.85412 -90.1524 11.1651 -1.07604 -0.198134 -0.505431 -1.08371 -0.150577 -23.0435 -0.966743 -0.512394 -3.03079 -0.966744 -0.512399 94.222 -49.5648 -94.3927 30.4127 -5.37999 8.93894 -10.264 -28.6042 -39.4755 -4.18343 -0.922399 7.48198 -96.218 -48.2484 68.9576 -21.5496 17.3553 -3.57118 6.54742 10.9132 -42.9254 11.3363 0.96169 4.37157 5.60901 2.22508 -1.66196 6.97195 2.93754 4.63594 
44.7149 93.2427 -288.321 -54.6436 -87.8444 -53.9053 -170.533 -7.7284 89.7302 -21.2188 17.2606 -3.07643 67.4078 8.24365 9.16638 46.2472 14.7724 7.40158 175.952 25.762 93.6203 -13.1898 -1.22309 1.30151 62.8729 -1.94822 -1.10209 38.3335 0.41107 -3.43853 -0.470522 7.92722 -90.0701 11.02 -0.969053 -0.0459095 -0.650612 -0.970136 -0.00321521 -23.1884 -0.910462 -0.335056 -3.17574 -0.910461 -0.335058 94.1265 -50.456 -94.4015 29.5934 -5.1117 9.26555 -10.4554 -28.3171 -39.7676 -2.85782 -0.854636 8.83772 -95.8349 -47.6891 69.3516 -22.0592 17.0057 -3.65404 5.64392 10.0659 -41.8797 10.8434 0.719349 2.6031 6.1024 2.33628 -2.24264 6.94939 3.18756 5.01652 
44.4105 93.2177 -285.057 -47.4242 -87.9407 -46.5599 -170.368 -8.28418 90.5254 -22.9802 18.0102 -2.71169 65.6695 6.35863 6.89402 47.4952 16.2629 9.63094 175.857 27.1261 93.8698 -18.7761 -0.990112 1.26206 61.5354 -1.37598 -0.763402 37.5685 0.368151 -5.69927 -0.506939 7.93215 -90.1459 11.009 -1.07671 -0.187195 -0.661527 -1.0839 -0.139625 -23.1996 -0.970667 -0.502174 -3.18697 -0.970666 -0.502164 93.5178 -50.2998 -95.3626 29.2591 -5.26346 9.86587 -9.35275 -27.5301 -39.6361 -4.49368 -0.954755 8.2104 -96.0355 -47.8068 69.088 -22.2161 16.6595 -3.42906 5.74681 10.2352 -41.5282 10.5377 0.720824 2.792 6.64298 2.44697 -1.53885 6.87821 3.12218 4.43484 
44.2377 93.4337 -281.701 -30.2058 -88.0213 -28.2723 -169.926 -7.91059 92.2743 -25.5728 19.6187 -2.08821 64.0434 5.05605 6.1409 47.092 16.0823 10.6862 175.756 27.3181 94.6681 -22.4414 -0.287421 1.46141 62.1224 -1.64118 -0.925178 37.2924 0.360787 -6.44708 -0.567252 7.91915 -90.3064 11.0339 -1.27122 -0.487676 -0.636554 -1.29145 -0.431256 -23.1747 -1.06589 -0.84721 -3.16208 -1.06588 -0.847216 93.084 -50.4214 -96.0091 29.0051 -5.04504 9.9904 -10.1024 -27.7299 -40.2809 -2.82973 -0.81323 8.06259 -96.3126 -47.6614 68.6244 -22.6839 16.1408 -2.85182 5.68519 10.5359 -40.5447 10.5657 0.722271 2.78702 7.00341 2.68674 -1.43163 6.84199 3.34996 4.51806 
43.9702 93.6096 -278.229 -38.7807 -88.1513 -36.2482 -169.433 -7.39164 93.3712 -28.8616 20.1017 -1.73617 60.0207 1.91763 5.39943 48.3729 17.2523 10.6515 175.325 26.3341 95.1138 -25.0269 -0.076696 1.87826 61.9315 -1.54102 -0.868242 37.4689 0.367801 -5.57274 -0.604292 7.93534 -90.4139 10.9988 -1.39476 -0.690913 -0.67152 -1.42381 -0.628854 -23.2095 -1.12264 -1.07818 -3.19682 -1.12264 -1.07818 93.1089 -49.2586 -96.1735 30.1104 -5.12554 9.5519 -9.0486 -27.0183 -39.6599 -4.42048 -0.977456 9.03154 -96.5357 -47.8714 68.3587 -23.1274 15.9264 -1.97273 5.07549 10.4479 -39.2008 10.5574 0.729871 2.85067 6.65263 3.16056 -0.918074 7.15787 3.72891 4.44881 
43.5818 93.7443 -274.725 22.1458 -87.0004 25.2344 -169.79 -3.05671 95.5988 -34.7217 20.1274 -0.668112 52.0711 -4.55094 -0.0464181 51.0378 20.2369 12.7079 174.481 26.6341 95.2685 -27.9369 0.790933 2.72088 64.3934 -2.18195 -1.21963 34.4727 0.361569 -5.13174 -0.888862 7.74616 -90.5061 11.3757 -2.00454 -0.80408 -0.293987 -2.03798 -0.715053 -22.8361 -1.67022 -1.36944 -2.8235 -1.67022 -1.36944 93.542 -48.9512 -95.5531 30.6408 -5.505 9.10012 -9.71362 -27.9088 -40.1779 -3.65002 -0.923822 9.11365 -96.1829 -47.4834 68.761 -23.6474 16.2367 -0.971888 4.40986 10.4063 -38.0917 10.136 0.74442 3.23568 6.5405 3.4554 -1.25003 6.40256 4.08821 4.8857 
42.9585 93.8773 -271.229 -27.6499 -87.6208 -25.4633 -168.897 -1.51495 95.2174 -39.5428 19.2412 -1.5738 45.3528 -8.98127 -2.68498 43.3626 12.8895 12.9462 175.5 25.2558 95.4929 -31.0407 -0.814343 1.59914 67.8693 -3.30451 -1.77012 31.2209 0.331126 -4.85832 -0.650736 7.76487 -90.3746 11.3405 -1.46947 -0.598869 -0.329693 -1.4944 -0.533601 -22.8687 -1.22155 -1.01285 -2.85604 -1.22155 -1.01285 93.5849 -48.6688 -95.5342 30.8458 -6.00908 9.27051 -11.3918 -28.3215 -41.8682 -4.28543 -0.976769 8.65327 -96.2684 -47.7126 68.7075 -23.7603 16.3518 -0.393913 3.80395 10.6093 -36.4664 10.1615 0.630867 2.19216 6.28704 3.64848 -0.744553 6.59549 4.13918 4.28276 
42.6552 94.0845 -267.945 -50.0945 -87.3527 -47.7294 -168.687 2.19688 95.647 -46.2825 16.8704 -1.5136 41.1493 -11.3234 -4.65622 38.739 8.56331 16.5321 175.718 22.8998 95.8733 -31.6577 -1.64814 1.41758 69.9418 -4.06539 -2.11725 30.8875 0.294873 -4.11992 -0.534181 7.80185 -90.3468 11.2673 -1.22445 -0.568864 -0.403191 -1.2483 -0.514422 -22.9406 -0.996888 -0.910577 -2.92797 -0.996878 -0.91058 93.0591 -48.0109 -96.4788 31.6642 -6.46475 9.17969 -12.9756 -27.9904 -43.612 -4.9167 -1.00698 8.04102 -96.0709 -47.5934 68.9656 -24.3345 15.6921 0.381842 3.71399 10.423 -35.9126 10.5192 0.786169 3.39016 6.37133 3.53117 -0.779463 6.85136 4.03173 4.208 
42.4064 94.592 -264.726 -71.6892 -86.069 -69.1842 -167.855 6.16958 95.8296 -52.2691 15.8241 -1.99672 44.3377 -9.2044 -2.23811 37.888 7.70172 17.2837 176.176 19.6335 96.1814 -30.3342 -2.86447 1.04165 70.8112 -4.53925 -2.34029 31.0256 0.298379 -4.15312 -0.291084 7.87317 -90.3219 11.125 -0.728763 -0.569884 -0.545816 -0.753149 -0.537265 -23.0809 -0.523807 -0.762558 -3.06828 -0.523815 -0.762573 93.0394 -47.4533 -96.6136 31.8518 -6.98176 8.22643 -10.9952 -25.1182 -44.89 -4.0563 -0.838157 6.93553 -96.3502 -47.9459 68.6614 -24.2944 15.0914 0.724334 3.2434 9.928 -35.0597 11.6357 0.900633 3.65193 6.59966 3.39722 -0.704177 7.19443 3.85957 3.82048 
41.986 95.1023 -261.595 -72.7494 -85.2824 -71.0965 -167.775 10.5604 94.5965 -55.2889 15.4317 -2.35893 47.3081 -7.12016 -0.453785 39.8326 9.61182 15.2752 176.28 16.9369 95.576 -28.9152 -3.24614 0.602697 72.1507 -5.10469 -2.57559 30.8485 0.260457 -3.40123 -0.19913 7.86747 -90.1824 11.1388 -0.48098 -0.315943 -0.532063 -0.494428 -0.294475 -23.0674 -0.36379 -0.445897 -3.0548 -0.363796 -0.445891 92.6969 -46.9431 -97.2576 31.9493 -7.59843 7.12616 -9.30193 -25.1154 -44.0148 -5.52695 -0.778781 4.12039 -96.0173 -48.1091 69.2131 -24.6355 14.3708 1.16581 3.42125 10.1416 -34.5066 12.9544 1.07418 4.27685 6.39832 3.36952 -0.603192 7.46036 3.78218 3.43698 
41.5381 95.7368 -258.131 -72.0834 -84.2046 -71.2772 -167.705 14.0363 93.2954 -54.8509 15.065 -2.85744 50.4574 -4.9257 0.893507 40.7838 10.5395 14.8333 176.644 13.6987 95.0137 -26.2467 -4.1895 -0.173696 72.6559 -5.41493 -2.7075 31.3045 0.236364 -2.60055 -0.0452555 7.81329 -90.0561 11.2472 -0.116174 -0.100218 -0.423729 -0.120475 -0.0950224 -22.9589 -0.080689 -0.130511 -2.94623 -0.0806863 -0.130508 92.73 -46.5544 -97.2809 32.1425 -7.62643 6.66518 -12.2284 -25.7272 -47.0644 -7.69934 -1.0362 5.69045 -96.0171 -48.4562 69.3243 -24.836 14.2152 1.73216 3.10941 9.97171 -33.8124 13.2377 1.00199 3.58781 5.64028 3.14311 -0.0274325 8.26131 3.38701 2.55346 
41.1653 96.1728 -255.005 -81.6535 -83.213 -81.7346 -167.814 16.0051 92.1163 -52.1619 14.327 -3.34959 53.1984 -3.03053 1.31976 43.1928 13.2445 17.0088 176.545 9.73679 94.1545 -24.1494 -5.67822 -0.74862 73.3399 -5.76636 -2.84484 29.645 0.157885 -2.03791 0.129699 7.89664 -89.9069 11.0804 0.301382 0.156043 -0.590557 0.307953 0.142624 -23.1258 0.240544 0.239405 -3.11318 0.240544 0.239404 92.6013 -46.1556 -97.5671 32.232 -8.13834 6.15621 -10.9895 -23.6692 -48.3401 -7.74572 -1.0272 5.80511 -95.7511 -48.1543 69.626 -25.7772 14.1658 2.56371 3.32356 10.225 -33.828 13.401 1.03253 3.72478 5.39796 2.97923 -0.234172 8.11323 3.2852 2.8047 
40.7994 96.4934 -251.722 -81.4387 -81.9834 -81.8554 -167.957 18.2621 91.4305 -47.214 14.089 -3.91511 56.3814 -0.850109 2.6099 44.1459 13.7806 13.9108 176.441 6.48309 93.7749 -21.5063 -6.06003 -0.965358 73.5385 -5.98762 -2.94443 28.4493 0.0294509 -0.66174 0.313239 7.86689 -89.8212 11.1389 0.70656 0.287105 -0.531899 0.718509 0.255721 -23.0679 0.587598 0.486184 -3.05527 0.587605 0.486183 92.7302 -45.7825 -97.4332 32.4049 -8.52273 5.80358 -10.8626 -22.6351 -49.737 -7.9095 -0.951305 4.8174 -95.2863 -48.0707 70.2972 -26.3639 14.472 3.40382 3.53506 10.4741 -34.2897 13.3222 1.04465 3.86074 5.83455 2.61051 -0.157798 7.41756 2.89461 2.80486 
